<svg width="199" height="143" viewBox="0 0 199 143" fill="none" xmlns="http://www.w3.org/2000/svg">
<circle cx="96.4924" cy="71.7197" r="70.99" fill="#F7E7B9"/>
<path d="M94.0403 100.165C80.7987 108.012 71.8483 98.7751 69.0283 93.176C69.9111 112.597 86.0708 108.052 94.0403 103.352C108.949 114.829 117.172 103.475 119.42 96.3638C110.494 106.565 98.7812 103.148 94.0403 100.165Z" fill="#F7D894"/>
<path d="M107.895 84.5935C97.6939 79.493 87.6237 82.4683 83.8638 84.5935C83.8638 93.6174 91.7924 97.6716 95.7567 98.5708C104.094 97.2956 107.323 88.7213 107.895 84.5935Z" fill="#C55736"/>
<path d="M176.623 17.2777C192.317 24.7323 197.63 43.0254 198.325 51.2401C198.325 62.1113 196.044 86.2814 186.922 95.992C175.52 108.13 168.408 100.651 160.807 92.1911C153.205 83.7312 146.952 59.087 142.416 40.328C137.879 21.569 139.473 12.1282 144.99 10.1665C150.508 8.20474 157.006 7.95952 176.623 17.2777Z" fill="#D74A1F"/>
<path d="M62.6528 92.5629C49.215 95.1132 36.0469 90.1108 31.1426 87.2908C33.2678 67.1831 39.9703 24.9078 49.779 16.6686C59.5876 8.42935 72.0119 4.24435 76.9979 3.18176C76.9979 3.18176 91.4657 5.63386 95.7569 33.9564C100.048 62.2788 79.4501 89.3751 62.6528 92.5629Z" fill="#F57645"/>
<path d="M106.424 86.6779C98.2825 92.1707 88.8089 88.9665 85.0898 86.6779C87.7382 95.2114 93.3863 97.6717 95.8793 97.8352C102.255 96.8543 105.565 89.9883 106.424 86.6779Z" fill="#A73F30"/>
<path d="M21.7016 15.8067C6.00779 23.2612 0.694778 41.5543 0 49.769C0 60.6403 2.28051 84.8104 11.4025 94.5209C22.8051 106.659 29.9163 99.18 37.518 90.7201C45.1197 82.2601 51.3727 57.616 55.9092 38.8569C60.4457 20.0979 58.8518 10.6571 53.3344 8.69539C47.8171 6.73367 41.3189 6.48845 21.7016 15.8067Z" fill="#D74A1F"/>
<path d="M21.7016 15.8067C6.00779 23.2612 0.694778 41.5543 0 49.769C0 60.6403 2.28051 84.8104 11.4025 94.5209C22.8051 106.659 29.9163 99.18 37.518 90.7201C45.1197 82.2601 51.3727 57.616 55.9092 38.8569C60.4457 20.0979 58.8518 10.6571 53.3344 8.69539C47.8171 6.73367 41.3189 6.48845 21.7016 15.8067Z" fill="#D74A1F"/>
<path d="M172.632 72.7005C164.491 72.8967 152.647 59.2954 147.743 52.4702C148.56 60.1128 152.524 78.316 161.843 89.9882C173.49 104.579 183.544 95.5056 186.977 89.9882C189.724 85.5743 193.108 68.2049 194.456 60.0719C189.307 70.1258 182.809 72.4553 172.632 72.7005Z" fill="#CA380A"/>
<rect x="73.3198" y="42.9069" width="11.2799" height="25.7477" rx="5.63996" fill="#873C4E"/>
<rect x="105.688" y="42.9069" width="11.2799" height="25.7477" rx="5.63996" fill="#873C4E"/>
<rect x="74.5459" y="45.8495" width="4.41388" height="8.33734" rx="2.20694" fill="#B2577C"/>
<rect x="106.915" y="45.8495" width="4.41388" height="8.33734" rx="2.20694" fill="#B2577C"/>
<path d="M24.031 72.7005C32.1722 72.8967 44.0161 59.2954 48.9204 52.4702C48.103 60.1128 44.1387 78.316 34.8205 89.9882C23.1728 104.579 13.1189 95.5056 9.68589 89.9882C6.93948 85.5743 3.5555 68.2049 2.20681 60.0719C7.35634 70.1258 13.8546 72.4553 24.031 72.7005Z" fill="#CA380A"/>
<path d="M84.845 128.61C69.4454 126.942 65.0234 113.12 64.7373 106.418L70.4999 109.728L89.2589 110.954L109.612 111.69L122.608 113.039C121.75 116.676 118.758 124.564 113.658 127.016C107.282 130.081 104.094 130.694 84.845 128.61Z" fill="#873C4E"/>
<path d="M93.6727 104.824C78.6655 114.829 68.6607 104.824 68.1703 97.5901C68.1703 97.5901 63.549 101.22 64.6146 106.295C67.189 118.556 76.262 117.698 78.5919 112.303C90.8527 116.423 105.034 115 110.837 113.897C113.78 117.085 120.401 117.698 122.976 112.548C126.357 105.786 122.486 99.8379 120.401 97.8353C114.614 114.412 100.171 109.401 93.6727 104.824Z" fill="white"/>
<ellipse cx="98.209" cy="11.1514" rx="28.0772" ry="7.7243" fill="#FFEFBE" fill-opacity="0.3"/>
<path d="M121.382 129.713C82.0786 146.826 48.4299 119.414 37.0273 104.824C37.0273 104.824 53.702 140.257 95.3887 140.257C146.392 140.257 157.387 105.028 156.57 89.3751C156.57 89.3751 152.647 116.1 121.382 129.713Z" fill="#FEE19B"/>
<path d="M95.3891 66.2024C90.4848 66.3986 84.5996 76.2562 83.3735 82.6319C92.7898 77.5314 103.399 80.5066 107.527 82.6319C107.159 76.6241 101.52 65.9572 95.3891 66.2024Z" fill="#FFF0C5" fill-opacity="0.72"/>
<path d="M158.782 91.4595C148.286 80.67 142.556 51.3258 141.003 38.0024C138.944 63.0145 150.117 88.8847 155.962 98.6933L158.782 91.4595Z" fill="#FED883"/>
</svg>
