<svg width="121" height="86" viewBox="0 0 121 86" fill="none" xmlns="http://www.w3.org/2000/svg">
<circle cx="58.4473" cy="43" r="43" fill="#F7E7B9"/>
<path d="M56.9618 60.2296C48.9411 64.9826 43.5196 59.3879 41.8115 55.9965C42.3462 67.7602 52.1345 65.0074 56.9618 62.1605C65.9925 69.1118 70.9733 62.2348 72.3348 57.9274C66.9283 64.1063 59.8334 62.0368 56.9618 60.2296Z" fill="#F7D894"/>
<path d="M65.354 50.798C59.1751 47.7086 53.0753 49.5107 50.7979 50.798C50.7979 56.264 55.6004 58.7197 58.0017 59.2643C63.0517 58.492 65.0074 53.2983 65.354 50.798Z" fill="#C55736"/>
<path d="M106.984 10.0234C116.49 14.5388 119.708 25.6193 120.129 30.5951C120.129 37.18 118.748 51.8203 113.222 57.7022C106.315 65.0545 102.008 60.5243 97.4035 55.3999C92.799 50.2756 89.0115 35.3481 86.2636 23.9854C83.5158 12.6227 84.4812 6.90426 87.8232 5.716C91.1652 4.52775 95.1013 4.37922 106.984 10.0234Z" fill="#D74A1F"/>
<path d="M37.9501 55.6253C29.8106 57.17 21.8344 54.1399 18.8638 52.4318C20.151 40.2522 24.2109 14.6453 30.1522 9.65459C36.0935 4.66392 43.6191 2.12898 46.6392 1.48535C46.6392 1.48535 55.4026 2.97064 58.0019 20.1261C60.6012 37.2816 48.1246 53.6943 37.9501 55.6253Z" fill="#F57645"/>
<path d="M64.4628 52.0604C59.5315 55.3875 53.7933 53.4467 51.5405 52.0604C53.1447 57.2293 56.5659 58.7196 58.0759 58.8186C61.9378 58.2245 63.9429 54.0656 64.4628 52.0604Z" fill="#A73F30"/>
<path d="M13.1451 9.13244C3.63903 13.6478 0.420841 24.7283 0 29.7041C0 36.289 1.38135 50.9293 6.90674 56.8112C13.8135 64.1635 18.1209 59.6333 22.7254 54.509C27.3299 49.3846 31.1174 34.4571 33.8653 23.0944C36.6131 11.7318 35.6477 6.01327 32.3057 4.82501C28.9637 3.63676 25.0276 3.48823 13.1451 9.13244Z" fill="#D74A1F"/>
<path d="M13.1451 9.13244C3.63903 13.6478 0.420841 24.7283 0 29.7041C0 36.289 1.38135 50.9293 6.90674 56.8112C13.8135 64.1635 18.1209 59.6333 22.7254 54.509C27.3299 49.3846 31.1174 34.4571 33.8653 23.0944C36.6131 11.7318 35.6477 6.01327 32.3057 4.82501C28.9637 3.63676 25.0276 3.48823 13.1451 9.13244Z" fill="#D74A1F"/>
<path d="M104.567 43.5942C99.6355 43.713 92.4614 35.4745 89.4907 31.3403C89.9858 35.9696 92.3871 46.9956 98.0313 54.0657C105.087 62.9034 111.176 57.4077 113.256 54.0657C114.919 51.3921 116.969 40.8711 117.786 35.9448C114.667 42.0346 110.731 43.4457 104.567 43.5942Z" fill="#CA380A"/>
<rect x="44.4111" y="25.5474" width="6.83247" height="15.5959" rx="3.41623" fill="#873C4E"/>
<rect x="64.0176" y="25.5474" width="6.83247" height="15.5959" rx="3.41623" fill="#873C4E"/>
<rect x="45.1538" y="27.33" width="2.67358" height="5.05009" rx="1.33679" fill="#B2577C"/>
<rect x="64.7603" y="27.33" width="2.67358" height="5.05009" rx="1.33679" fill="#B2577C"/>
<path d="M14.5558 43.5942C19.4871 43.713 26.6612 35.4745 29.6318 31.3403C29.1367 35.9696 26.7355 46.9956 21.0912 54.0657C14.036 62.9034 7.94617 57.4077 5.86672 54.0657C4.20317 51.3921 2.15342 40.8711 1.3365 35.9448C4.45567 42.0346 8.39177 43.4457 14.5558 43.5942Z" fill="#CA380A"/>
<path d="M51.3925 77.4595C42.0647 76.4495 39.3862 68.0772 39.2129 64.0173L42.7034 66.0225L54.0661 66.7652L66.3942 67.2108L74.2664 68.0277C73.7466 70.2309 71.9345 75.0087 68.845 76.494C64.9832 78.3507 63.0523 78.722 51.3925 77.4595Z" fill="#873C4E"/>
<path d="M56.7392 63.0519C47.649 69.112 41.5889 63.0519 41.2919 58.6702C41.2919 58.6702 38.4927 60.8689 39.1381 63.943C40.6975 71.3697 46.1932 70.8498 47.6045 67.5821C55.0311 70.0774 63.6209 69.216 67.1362 68.5476C68.9186 70.4785 72.9292 70.8498 74.4888 67.7306C76.5367 63.6347 74.1917 60.0317 72.9292 58.8187C69.4238 68.8595 60.6753 65.8245 56.7392 63.0519Z" fill="white"/>
<ellipse cx="59.4869" cy="6.31255" rx="17.0069" ry="4.67876" fill="#FFEFBE" fill-opacity="0.3"/>
<path d="M73.5232 78.1277C49.7167 88.4933 29.335 71.8894 22.4282 63.0517C22.4282 63.0517 32.5284 84.5146 57.7788 84.5146C88.6726 84.5146 95.3327 63.1755 94.8376 53.6942C94.8376 53.6942 92.461 69.8821 73.5232 78.1277Z" fill="#FEE19B"/>
<path d="M57.779 39.6582C54.8084 39.777 51.2436 45.748 50.501 49.6098C56.2046 46.5203 62.6311 48.3225 65.1314 49.6098C64.9086 45.9708 61.4923 39.5096 57.779 39.6582Z" fill="#FFF0C5" fill-opacity="0.72"/>
<path d="M96.1768 54.9567C89.8197 48.4213 86.349 30.647 85.4083 22.5768C84.1606 37.727 90.9287 53.3972 94.4687 59.3384L96.1768 54.9567Z" fill="#FED883"/>
</svg>
